<svg width="77" height="77" viewBox="0 0 77 77" fill="none" xmlns="http://www.w3.org/2000/svg">
<g clip-path="url(#clip0_58_22)">
<g clip-path="url(#clip1_58_22)">
<path d="M20.2975 40.7377H12.6761V45.8556H20.2342C20.2342 45.8556 20.0916 47.8838 18.412 47.8838H12.6761C12.6761 47.8838 10.1567 47.8838 10.1567 45.4436V41.3081C10.1493 40.8294 10.2667 40.3571 10.4973 39.9376C10.7279 39.518 11.0638 39.1658 11.4718 38.9155C11.8268 38.7038 12.2311 38.5891 12.6444 38.5827H18.5546C18.5546 38.5827 20.2975 39.2007 20.2975 40.7377ZM24.2905 40.6426H32.213C32.213 40.6426 32.0387 38.5827 30.6285 38.5827H24.2905C24.2905 38.5827 22.0247 38.8838 22.0247 40.6426V41.8627C22.0131 42.3859 22.1747 42.8983 22.4842 43.3204C22.6793 43.6062 22.9419 43.8396 23.2486 43.9999C23.5554 44.1602 23.8969 44.2424 24.243 44.2394H30.1056V45.9507H22.0247C22.1213 46.4664 22.3904 46.9339 22.7877 47.2765C23.185 47.6191 23.687 47.8165 24.2113 47.8363H30.5493C31.1266 47.7684 31.6553 47.4797 32.0245 47.0308C32.3937 46.5818 32.5749 46.0074 32.5299 45.4278V44.4137C32.5292 44.2455 32.497 44.0789 32.4349 43.9225C32.2502 43.4129 31.9079 42.9754 31.4578 42.6734C31.0076 42.3714 30.473 42.2206 29.9313 42.2429C27.7606 42.2429 24.2271 42.1637 24.2271 42.1637L24.2905 40.6426ZM58.7535 40.294H50.3556V46.0299H56.8204V43.9859H53.4613C53.4613 43.9859 51.7975 43.6373 51.7975 42.5123H58.7535V46.3943C58.6521 46.8469 58.3986 47.2511 58.0353 47.5394C57.672 47.8277 57.2208 47.9828 56.7571 47.9789H50.419C49.867 47.9789 49.3374 47.7607 48.9456 47.3719C48.5539 46.983 48.3317 46.4551 48.3275 45.9032V40.6584C48.3317 40.1065 48.5539 39.5785 48.9456 39.1897C49.3374 38.8009 49.867 38.5827 50.419 38.5827H57.0423C57.4961 38.5827 57.9314 38.763 58.2523 39.0839C58.5732 39.4049 58.7535 39.8401 58.7535 40.294ZM66.1849 47.8204H65.1866C63.9595 47.8204 62.7827 47.3329 61.915 46.4653C61.0473 45.5976 60.5599 44.4207 60.5599 43.1936C60.5599 42.5868 60.6797 41.9859 60.9124 41.4255C61.1451 40.865 61.4861 40.356 61.916 39.9276C62.3458 39.4993 62.856 39.1599 63.4172 38.9292C63.9785 38.6984 64.5798 38.5806 65.1866 38.5827H66.1849C66.7904 38.5827 67.39 38.702 67.9494 38.9337C68.5088 39.1654 69.0171 39.5051 69.4453 39.9332C69.8734 40.3614 70.2131 40.8697 70.4448 41.4291C70.6765 41.9885 70.7958 42.5881 70.7958 43.1936C70.7979 43.8005 70.6801 44.4018 70.4494 44.963C70.2186 45.5243 69.8793 46.0345 69.4509 46.4643C69.0225 46.8941 68.5135 47.2352 67.9531 47.4679C67.3926 47.7006 66.7917 47.8204 66.1849 47.8204ZM68.7835 40.2623H62.588V46.0933H68.7835V40.2623Z" fill="white"/>
<path d="M43.4155 29.1232V29.9155H43.9225L44.6514 29.5194V28.9173H44.8415V29.4243H45.2693V29.7412H50.7042V29.8996H50.9102V28.9014H51.1162V29.8996H51.4806V30.2799H53.0651V30.1056H53.2236V30.3116H54V30.6285H52.97V30.5018H51.4965V30.6444H50.7042V30.9137H48.375L47.5352 31.6901L47.7887 32.9261L47.3134 33.2113C47.3134 33.2113 46.9965 35.2553 45.4753 35.081L43.3679 34.0669L43.2095 34.7482L43.7799 35.2077V37.632L43.2095 38.3609L42.7817 38.25V39.2007C43.8145 40.2375 44.5339 41.5446 44.8574 42.9718C45.0777 43.1773 45.2227 43.4506 45.2693 43.7482C45.3865 44.2142 45.4398 44.694 45.4278 45.1743C45.2822 45.7453 45.192 46.329 45.1584 46.9173C45.2851 47.442 45.2576 47.9922 45.0792 48.5018V49.8011C45.3002 50.1803 45.5662 50.5314 45.8715 50.8468C46.125 50.9736 46.9648 51.2113 46.9965 51.4331V52.0035H44.9049C44.7026 51.8982 44.4903 51.8133 44.2711 51.75C44.0017 51.75 43.5264 52.0352 43.1461 51.75C43.0714 51.6583 43.0208 51.5494 42.9986 51.4333C42.9765 51.3171 42.9836 51.1972 43.0193 51.0845L43.4155 50.1338V48.6602C42.9963 48.1135 42.7983 47.429 42.8609 46.743C42.9718 45.5863 43.1461 45.2694 43.1303 44.9525C43.1144 44.6356 43.0193 44.3662 42.7817 44.3662H42.2588L40.801 42.2746H40.2306L39.9612 41.625H39.7236V42.1162C39.2252 42.5634 38.8813 43.1569 38.7412 43.8116C38.7412 44.6989 38.5035 44.8099 38.2817 44.9683C37.8086 45.3711 37.5034 45.9363 37.426 46.5528C37.4466 47.1121 37.2974 47.6644 36.9982 48.1373C36.7605 48.4542 36.8081 49.0722 36.5387 49.2465C36.3159 49.3676 36.1294 49.546 35.9985 49.7633C35.8676 49.9805 35.797 50.2288 35.794 50.4824C35.7191 51.0397 35.7623 51.6066 35.9207 52.1461C35.955 52.2759 35.955 52.4124 35.9207 52.5423C35.5875 52.6163 35.2479 52.6587 34.9067 52.669C34.4472 52.669 33.9243 52.669 33.8926 52.3363C34.0197 51.3466 34.2372 50.3708 34.5422 49.4208C34.4313 49.1928 34.3666 48.945 34.3521 48.6919C34.4313 48.2402 34.6219 47.8154 34.9067 47.456C34.87 47.2304 34.87 47.0003 34.9067 46.7746C34.9067 46.5687 36 44.8574 36.2218 44.4296C36.0693 43.8532 36.0693 43.2471 36.2218 42.6708C36.4753 41.9419 36.5546 41.6408 36.4753 41.4507C36.3961 41.2606 36.1109 40.8486 36.1584 40.6584C36.206 40.4683 36.3644 40.5792 36.3644 40.5792V40.1989H36.1426C36.1398 40.0382 36.1939 39.8816 36.2954 39.757C36.3969 39.6323 36.5392 39.5475 36.6972 39.5176C36.6427 39.0165 36.558 38.5191 36.4436 38.0282C36.3644 37.6003 36.3327 36.8239 36.8398 36.7447C36.8398 36.7447 36.7605 36.3961 36.507 36.3961C36.376 36.3733 36.242 36.3733 36.1109 36.3961L36.3327 33.7025H37.4577C37.2015 32.7265 37.2626 31.6943 37.632 30.7553C38.2975 29.5986 39.2165 28.9014 40.0563 29.5352H40.2465L40.1672 29.1866C39.9845 28.6892 39.9975 28.1411 40.2033 27.6528C40.4092 27.1646 40.7927 26.7727 41.2764 26.5563C41.6773 26.446 42.1 26.442 42.5029 26.5448C42.9058 26.6476 43.2749 26.8537 43.5739 27.1426C43.8039 27.3606 43.9528 27.6505 43.996 27.9644C44.0392 28.2784 43.9741 28.5977 43.8116 28.8697C43.7083 28.9924 43.5701 29.0808 43.4155 29.1232Z" fill="white"/>
</g>
</g>
<defs>
<clipPath id="clip0_58_22">
<rect width="76.0563" height="76.0563" fill="white"/>
</clipPath>
<clipPath id="clip1_58_22">
<rect width="76.0563" height="76.0563" fill="white"/>
</clipPath>
</defs>
</svg>
